<svg width="1200" height="800" viewBox="0 0 1200 800" xmlns="http://www.w3.org/2000/svg">
  <rect width="1200" height="800" fill="#f8fafc"/>
  <rect x="140" y="120" width="920" height="560" rx="24" fill="#ffffff" stroke="#cbd5e1" stroke-width="3"/>
  <path d="M220 600C280 420 360 280 520 238C658 200 780 220 940 360" stroke="#0f172a" stroke-width="8" fill="none" stroke-linecap="round"/>
  <path d="M220 600C320 420 420 300 544 260C670 220 794 240 940 360" stroke="#4f46e5" stroke-width="18" fill="none" stroke-linecap="round" opacity="0.25"/>
  <path d="M248 590C340 430 430 310 538 276C652 242 768 250 920 370" stroke="#f97316" stroke-width="10" fill="none" stroke-linecap="round"/>
  <path d="M280 560C364 446 442 338 532 308C625 278 736 280 890 372" stroke="#ef4444" stroke-width="8" fill="none" stroke-linecap="round"/>
  <rect x="180" y="160" width="260" height="92" rx="16" fill="#fef2f2" stroke="#fecaca" stroke-width="2"/>
  <text x="210" y="210" font-family="Arial, sans-serif" font-size="32" fill="#7f1d1d">QC overlay</text>
  <circle cx="900" cy="230" r="52" fill="#93c5fd" opacity="0.6"/>
  <circle cx="900" cy="230" r="24" fill="#2563eb"/>
</svg>
